<?xml version="1.0" encoding="UTF-8"?>
<svg xmlns="http://www.w3.org/2000/svg" xmlns:xlink="http://www.w3.org/1999/xlink" viewBox="0 0 172.48 177.8">
  <defs>
    <style>
      .cls-1 {
        stroke: url(#Degradado_sin_nombre_107-12);
        stroke-width: .44px;
      }

      .cls-1, .cls-2, .cls-3, .cls-4, .cls-5, .cls-6, .cls-7, .cls-8, .cls-9, .cls-10, .cls-11, .cls-12, .cls-13, .cls-14, .cls-15 {
        fill: none;
        stroke-miterlimit: 10;
      }

      .cls-2 {
        stroke: url(#Degradado_sin_nombre_107-13);
        stroke-width: .38px;
      }

      .cls-3 {
        stroke: url(#Degradado_sin_nombre_107-5);
        stroke-width: .89px;
      }

      .cls-4 {
        stroke: url(#Degradado_sin_nombre_107-2);
        stroke-width: 1.08px;
      }

      .cls-5 {
        stroke: url(#Degradado_sin_nombre_107-14);
        stroke-width: .32px;
      }

      .cls-16 {
        isolation: isolate;
      }

      .cls-6 {
        stroke: url(#Degradado_sin_nombre_107);
        stroke-width: 1.14px;
      }

      .cls-7 {
        stroke: url(#Degradado_sin_nombre_107-4);
        stroke-width: .95px;
      }

      .cls-8 {
        stroke: url(#Degradado_sin_nombre_107-3);
        stroke-width: 1.02px;
      }

      .cls-9 {
        stroke: url(#Degradado_sin_nombre_107-15);
        stroke-width: .25px;
      }

      .cls-10 {
        stroke: url(#Degradado_sin_nombre_107-6);
        stroke-width: .82px;
      }

      .cls-11 {
        stroke: url(#Degradado_sin_nombre_107-9);
        stroke-width: .63px;
      }

      .cls-12 {
        stroke: url(#Degradado_sin_nombre_107-7);
        stroke-width: .76px;
      }

      .cls-17 {
        mix-blend-mode: overlay;
        opacity: .46;
      }

      .cls-13 {
        stroke: url(#Degradado_sin_nombre_107-8);
        stroke-width: .7px;
      }

      .cls-14 {
        stroke: url(#Degradado_sin_nombre_107-10);
        stroke-width: .57px;
      }

      .cls-15 {
        stroke: url(#Degradado_sin_nombre_107-11);
        stroke-width: .51px;
      }
    </style>
    <linearGradient id="Degradado_sin_nombre_107" data-name="Degradado sin nombre 107" x1="-13.83" y1="86.59" x2="167.64" y2="86.59" gradientTransform="translate(-13.57 33.68) rotate(-19.06)" gradientUnits="userSpaceOnUse">
      <stop offset="0" stop-color="#f08f00" stop-opacity=".9"/>
      <stop offset=".01" stop-color="#eb8502" stop-opacity=".9"/>
      <stop offset=".07" stop-color="#da5d0d" stop-opacity=".9"/>
      <stop offset=".14" stop-color="#cc3e16" stop-opacity=".9"/>
      <stop offset=".2" stop-color="#c2271c" stop-opacity=".9"/>
      <stop offset=".26" stop-color="#bc1a20" stop-opacity=".9"/>
      <stop offset=".32" stop-color="#bb1622" stop-opacity=".9"/>
      <stop offset=".34" stop-color="#a0172d" stop-opacity=".9"/>
      <stop offset=".37" stop-color="#78193e" stop-opacity=".9"/>
      <stop offset=".39" stop-color="#591a4b" stop-opacity=".9"/>
      <stop offset=".42" stop-color="#421c55" stop-opacity=".9"/>
      <stop offset=".45" stop-color="#351c5b" stop-opacity=".9"/>
      <stop offset=".47" stop-color="#311d5d" stop-opacity=".9"/>
      <stop offset=".51" stop-color="#371d61" stop-opacity=".9"/>
      <stop offset=".56" stop-color="#4b206e" stop-opacity=".9"/>
      <stop offset=".61" stop-color="#662480" stop-opacity=".9"/>
      <stop offset=".65" stop-color="#6c247b" stop-opacity=".9"/>
      <stop offset=".71" stop-color="#80276e" stop-opacity=".9"/>
      <stop offset=".78" stop-color="#9f2a58" stop-opacity=".9"/>
      <stop offset=".86" stop-color="#cb3039" stop-opacity=".9"/>
      <stop offset=".89" stop-color="#e3332a" stop-opacity=".9"/>
      <stop offset=".9" stop-color="#e32b36" stop-opacity=".9"/>
      <stop offset=".92" stop-color="#e31855" stop-opacity=".9"/>
      <stop offset=".95" stop-color="#e30a6c" stop-opacity=".9"/>
      <stop offset=".98" stop-color="#e30279" stop-opacity=".9"/>
      <stop offset="1" stop-color="#e3007e" stop-opacity=".9"/>
    </linearGradient>
    <linearGradient id="Degradado_sin_nombre_107-2" data-name="Degradado sin nombre 107" x1="-11.34" y1="85.93" x2="162.96" y2="85.93" gradientTransform="translate(-13.24 36.95) rotate(-20.6)" xlink:href="#Degradado_sin_nombre_107"/>
    <linearGradient id="Degradado_sin_nombre_107-3" data-name="Degradado sin nombre 107" x1="-8.19" y1="86.3" x2="158.75" y2="86.3" gradientTransform="translate(-13.81 39.43) rotate(-22.17)" xlink:href="#Degradado_sin_nombre_107"/>
    <linearGradient id="Degradado_sin_nombre_107-4" data-name="Degradado sin nombre 107" x1="-5.49" y1="85.51" x2="153.9" y2="85.51" gradientTransform="translate(-13.48 42.71) rotate(-23.74) scale(.99)" xlink:href="#Degradado_sin_nombre_107"/>
    <linearGradient id="Degradado_sin_nombre_107-5" data-name="Degradado sin nombre 107" x1="-2.69" y1="84.64" x2="149.02" y2="84.64" gradientTransform="translate(-13.15 45.98) rotate(-25.32) scale(.98)" xlink:href="#Degradado_sin_nombre_107"/>
    <linearGradient id="Degradado_sin_nombre_107-6" data-name="Degradado sin nombre 107" x1=".66" y1="84.85" x2="144.57" y2="84.85" gradientTransform="translate(-13.72 48.46) rotate(-26.92) scale(.98)" xlink:href="#Degradado_sin_nombre_107"/>
    <linearGradient id="Degradado_sin_nombre_107-7" data-name="Degradado sin nombre 107" x1="3.61" y1="83.86" x2="139.63" y2="83.86" gradientTransform="translate(-13.39 51.74) rotate(-28.51) scale(.98)" xlink:href="#Degradado_sin_nombre_107"/>
    <linearGradient id="Degradado_sin_nombre_107-8" data-name="Degradado sin nombre 107" x1="6.62" y1="82.79" x2="134.72" y2="82.79" gradientTransform="translate(-13.06 55.01) rotate(-30.11) scale(.98)" xlink:href="#Degradado_sin_nombre_107"/>
    <linearGradient id="Degradado_sin_nombre_107-9" data-name="Degradado sin nombre 107" x1="11.23" y1="82.5" x2="131.41" y2="82.5" gradientTransform="translate(-14.43 58.39) rotate(-31.71) scale(.98)" xlink:href="#Degradado_sin_nombre_107"/>
    <linearGradient id="Degradado_sin_nombre_107-10" data-name="Degradado sin nombre 107" x1="14.32" y1="81.36" x2="126.59" y2="81.36" gradientTransform="translate(-14.1 61.67) rotate(-33.3) scale(.98)" xlink:href="#Degradado_sin_nombre_107"/>
    <linearGradient id="Degradado_sin_nombre_107-11" data-name="Degradado sin nombre 107" x1="17.72" y1="81.36" x2="122.15" y2="81.36" gradientTransform="translate(-14.67 64.15) rotate(-34.89) scale(.98)" xlink:href="#Degradado_sin_nombre_107"/>
    <linearGradient id="Degradado_sin_nombre_107-12" data-name="Degradado sin nombre 107" x1="20.81" y1="80.13" x2="117.5" y2="80.13" gradientTransform="translate(-14.34 67.42) rotate(-36.48) scale(.99)" xlink:href="#Degradado_sin_nombre_107"/>
    <linearGradient id="Degradado_sin_nombre_107-13" data-name="Degradado sin nombre 107" x1="23.89" y1="78.85" x2="112.97" y2="78.85" gradientTransform="translate(-14.01 70.7) rotate(-38.05)" xlink:href="#Degradado_sin_nombre_107"/>
    <linearGradient id="Degradado_sin_nombre_107-14" data-name="Degradado sin nombre 107" x1="27.14" y1="78.75" x2="108.78" y2="78.75" gradientTransform="translate(-14.58 73.18) rotate(-39.61)" xlink:href="#Degradado_sin_nombre_107"/>
    <linearGradient id="Degradado_sin_nombre_107-15" data-name="Degradado sin nombre 107" x1="30.14" y1="77.4" x2="104.54" y2="77.4" gradientTransform="translate(-14.25 76.45) rotate(-41.16)" xlink:href="#Degradado_sin_nombre_107"/>
  </defs>
  <g class="cls-16">
    <g id="Capa_2" data-name="Capa 2">
      <g id="OBJECTS">
        <g class="cls-17">
          <path class="cls-6" d="m171,56.28c5.92,17.14-18.49,32.18-29.46,54.71-13.41,27.55-2.56,59.74-19.7,65.66-17.14,5.92-41.85-35.21-56.96-42.56-15.11-7.35-57.74.13-63.66-17.01-5.92-17.14,30.8-40.69,38.15-55.8,7.35-15.11,4.76-54.06,21.91-59.98,17.14-5.92,39.29,26.11,53.83,34.53,15.37,8.9,49.97,3.31,55.89,20.45Z"/>
          <path class="cls-4" d="m166.92,56.87c5.85,16.32-17.32,30.96-27.55,52.61-12.51,26.48-1.79,57.13-18.11,62.98-16.32,5.85-40.39-33.19-54.92-40.05-14.53-6.86-55.18.76-61.03-15.56-5.85-16.32,28.99-39.23,35.85-53.75,6.86-14.53,3.95-51.72,20.27-57.57,16.32-5.85,37.84,24.52,51.83,32.41,14.79,8.33,47.8,2.61,53.65,18.93Z"/>
          <path class="cls-8" d="m162.85,57.45c5.78,15.5-16.15,29.74-25.64,50.52-11.61,25.41-1.01,54.52-16.51,60.29-15.5,5.78-38.93-31.17-52.87-37.54-13.94-6.37-52.63,1.39-58.41-14.1-5.78-15.5,27.18-37.77,33.54-51.71,6.37-13.94,3.15-49.38,18.64-55.16,15.5-5.78,36.39,22.93,49.84,30.29,14.21,7.77,45.63,1.91,51.4,17.41Z"/>
          <path class="cls-7" d="m158.78,58.04c5.7,14.67-14.97,28.52-23.74,48.43-10.71,24.34-.24,51.9-14.91,57.61-14.67,5.7-37.47-29.15-50.82-35.03s-50.08,2.03-55.78-12.65c-5.7-14.67,25.36-36.31,31.24-49.66,5.88-13.35,2.34-47.04,17.01-52.75,14.67-5.7,34.94,21.35,47.84,28.17,13.63,7.21,43.45,1.21,49.16,15.88Z"/>
          <path class="cls-3" d="m154.7,58.62c5.63,13.85-13.8,27.3-21.83,46.33-9.82,23.27.53,49.29-13.31,54.92s-36.01-27.13-48.77-32.52c-12.77-5.38-47.52,2.66-53.15-11.19-5.63-13.85,23.55-34.85,28.94-47.62,5.38-12.77,1.53-44.71,15.38-50.34,13.85-5.63,33.49,19.76,45.84,26.05,13.05,6.64,41.28.51,46.91,14.36Z"/>
          <path class="cls-10" d="m150.63,59.21c5.56,13.03-12.63,26.08-19.92,44.24-8.92,22.2,1.31,46.68-11.72,52.24-13.03,5.56-34.54-25.11-46.72-30-12.18-4.89-44.97,3.29-50.53-9.73-5.56-13.03,21.74-33.39,26.63-45.57,4.89-12.18.72-42.37,13.75-47.93,13.03-5.56,32.04,18.17,43.84,23.92,12.46,6.08,39.11-.18,44.67,12.84Z"/>
          <path class="cls-12" d="m146.55,59.79c5.49,12.2-11.45,24.87-18.01,42.15-8.02,21.13,2.08,44.06-10.12,49.55-12.2,5.49-33.08-23.09-44.67-27.49-11.59-4.4-42.41,3.92-47.9-8.28-5.49-12.2,19.93-31.93,24.33-43.53,4.4-11.59-.09-40.03,12.12-45.52,12.2-5.49,30.6,16.58,41.84,21.8,11.88,5.52,36.93-.88,42.42,11.32Z"/>
          <path class="cls-13" d="m142.48,60.38c5.41,11.38-10.28,23.65-16.11,40.05-7.12,20.06,2.85,41.45-8.52,46.86-11.38,5.41-31.62-21.07-42.63-24.98s-39.86,4.56-45.27-6.82c-5.41-11.38,18.12-30.48,22.03-41.48,3.91-11.01-.89-37.69,10.48-43.11,11.38-5.41,29.15,14.99,39.84,19.68,11.3,4.95,34.76-1.58,40.18,9.8Z"/>
          <path class="cls-11" d="m138.41,60.96c5.34,10.56-9.11,22.43-14.2,37.96-6.23,18.99,3.63,38.84-6.93,44.18s-30.16-19.05-40.58-22.47c-10.42-3.42-37.3,5.19-42.65-5.37-5.34-10.55,16.31-29.02,19.72-39.43,3.42-10.42-1.7-35.36,8.85-40.7,10.56-5.34,27.7,13.4,37.84,17.56,10.72,4.39,32.59-2.28,37.93,8.27Z"/>
          <path class="cls-14" d="m134.33,61.55c5.27,9.73-7.93,21.21-12.29,35.87-5.33,17.92,4.4,36.22-5.33,41.49-9.73,5.27-28.7-17.03-38.53-19.96-9.83-2.92-34.75,5.82-40.02-3.91-5.27-9.73,14.5-27.56,17.42-37.39,2.92-9.83-2.51-33.02,7.22-38.29s26.25,11.81,35.85,15.44c10.14,3.83,30.41-2.98,35.68,6.75Z"/>
          <path class="cls-15" d="m130.26,62.13c5.2,8.91-6.76,19.99-10.39,33.77-4.43,16.85,5.18,33.61-3.73,38.81-8.91,5.2-27.24-15.02-36.48-17.45-9.24-2.43-32.19,6.45-37.39-2.45-5.2-8.91,12.68-26.1,15.11-35.34,2.43-9.24-3.32-30.68,5.59-35.88,8.91-5.2,24.8,10.22,33.85,13.31,9.56,3.26,28.24-3.68,33.44,5.23Z"/>
          <path class="cls-1" d="m126.19,62.72c5.13,8.08-5.59,18.77-8.48,31.68-3.54,15.78,5.95,31-2.14,36.12-8.08,5.13-25.78-13-34.43-14.94-8.66-1.94-29.64,7.09-34.77-1-5.13-8.08,10.87-24.64,12.81-33.3,1.94-8.66-4.13-28.34,3.96-33.47s23.35,8.64,31.85,11.19c8.98,2.7,26.07-4.38,31.19,3.71Z"/>
          <path class="cls-2" d="m122.11,63.3c5.05,7.26-4.41,17.56-6.57,29.59-2.64,14.71,6.72,28.38-.54,33.44s-24.31-10.98-32.38-12.42-27.09,7.72-32.14.46c-5.05-7.26,9.06-23.18,10.51-31.25,1.45-8.07-4.93-26.01,2.33-31.06,7.26-5.05,21.9,7.05,29.85,9.07,8.39,2.14,23.9-5.08,28.95,2.19Z"/>
          <path class="cls-5" d="m118.04,63.89c4.98,6.44-3.24,16.34-4.66,27.49-1.74,13.64,7.5,25.77,1.06,30.75-6.44,4.98-22.85-8.96-30.34-9.91-7.48-.96-24.53,8.35-29.51,1.91-4.98-6.44,7.25-21.72,8.2-29.21.95-7.48-5.74-23.67.7-28.65,6.44-4.98,20.46,5.46,27.85,6.95,7.81,1.57,21.72-5.77,26.7.66Z"/>
          <path class="cls-9" d="m113.96,64.47c4.91,5.61-2.07,15.12-2.76,25.4-.84,12.57,8.27,23.16,2.65,28.06-5.61,4.91-21.39-6.94-28.29-7.4-6.9-.46-21.98,8.98-26.88,3.37-4.91-5.61,5.44-20.27,5.9-27.16.46-6.9-6.55-21.33-.94-26.24,5.61-4.91,19.01,3.87,25.85,4.83,7.23,1.01,19.55-6.47,24.46-.86Z"/>
        </g>
      </g>
    </g>
  </g>
</svg>